<svg id="Слой_1" data-name="Слой 1" xmlns="http://www.w3.org/2000/svg" xmlns:xlink="http://www.w3.org/1999/xlink" viewBox="0 0 137.63 111.75"><defs><style>.cls-1{fill:#5272b2;}.cls-2{fill:url(#Безымянный_градиент_29);}</style><linearGradient id="Безымянный_градиент_29" x1="65.83" y1="57.69" x2="115.87" y2="57.69" gradientTransform="translate(-17.35 32.42) rotate(-20.2)" gradientUnits="userSpaceOnUse"><stop offset="0" stop-color="#5272b2"/><stop offset="0.2" stop-color="#4d72b9"/><stop offset="0.48" stop-color="#3f70cb"/><stop offset="0.8" stop-color="#276ee9"/><stop offset="1" stop-color="#166dff"/></linearGradient></defs><title>иконка 2</title><path class="cls-1" d="M63.64,70.59a114.54,114.54,0,0,1-20.34,15A110.05,110.05,0,0,1,32.46,91c-2.22,1.87-3.1,1.53-2.66-1a3.51,3.51,0,0,1,3.55.59,20,20,0,0,1,3.58,3.18C41.85,98.38,47.31,99.88,54,99.7c5.82-.15,11.92-1.86,13.32-8.27A3.12,3.12,0,0,0,65.94,88l-.58-.34a3,3,0,0,0-3,0c-4.11,2.33-4.95,9.36-6.11,13.53-1.81,6.5-3.22,13.09-4.69,19.67-.79,3.6-1.6,7.19-2.49,10.76-.65,2.58-1,6.51-3.2,8.1-3.59,2.59-12.18,2-13.57-2.72-1.58-5.4,5.83-8.69,9.84-9.95,5-1.56,9.82-3.54,14.93-4.63,6.69-1.42,23.59-5,18.38-15.41a3,3,0,0,0-5.18,0c-4.45,8.42-17.07,35.62,2.7,34.51,14.26-.79,23.7-18.32,22.09-31.19-.75-6-5-12-11.57-12-6.08,0-11.1,6.64-10.07,12.51,1.17,6.7,10,8.28,15.65,8.09,8.71-.29,16.95-4.63,24.28-9,7.14-4.25,13.93-9.62,18.08-16.95,3-5.23,6.21-14.35,2.37-19.93-3.4-4.93-10.61-4-14.46-.2-5.36,5.27-7.82,14.67-10.63,21.45-5.78,13.92-10.69,34.15,2.4,45.87a13,13,0,0,0,17.1.57c6.43-5,7.48-13.27,6.41-20.87s-5.43-14.65-14.33-12.59c-4.79,1.1-14.42,7.6-10,13.48,3.83,5,13.7,1.24,18.15-.64s8-5,12.93-6.27c4.33-1.12,10.21-1.72,14.63-.55l-2.1-2.1.19.57c1.19,3.65,7,2.09,5.78-1.6-.9-2.77-2.88-2.84-5.46-3a46,46,0,0,0-13.1.57,35.25,35.25,0,0,0-11.55,4.76c-3.06,1.94-9.21,5.64-13.08,4.52-.15,0-1.07.11-1.11.07-.25-.24,3.53-3,2.91-2.59,2.08-1.28,5.15-2.26,7.39-.75,4.69,3.15,3.77,14.81,1.46,19-3.09,5.63-9.56,6.43-13.66,1.49-3.4-4.09-4.78-9.53-4.92-14.76-.3-11,4.67-21.23,8.93-31,1.53-3.52,2.9-8.66,5.85-11.3,2.71-2.42,5.38-1.36,5.79,2.3.33,3-1.09,6.58-2.37,9.15-4.73,9.55-14.42,15.38-23.62,20C98.42,111.05,93,113.17,87.42,113c-1.91-.07-5.81-.38-7.27-1.89-3.05-3.16,2-7.88,5.45-6.12,5.13,2.68,3.84,11,2.48,15.46a23.72,23.72,0,0,1-9,12.61c-2.14,1.46-4.83,2.79-7.5,2.57-4.56-.39-3.88-5.1-3.1-8.28a77,77,0,0,1,6.91-17.25H70.24c1.89,3.77-18.1,7.28-20.13,7.93-5.07,1.63-11.17,3.06-15.74,5.8-4,2.41-8.39,6.14-8.37,11.2a11.48,11.48,0,0,0,4.07,9.21c7.14,5.59,20.62,3.46,23.34-5.62,2.29-7.63,3.75-15.52,5.51-23.28.81-3.58,1.65-7.16,2.6-10.71.61-2.28,1.86-10.6,3.84-11.72h-3l.58.34-1.38-3.38c-1.21,5.56-12.71,4.47-16.65,2.54-3.75-1.84-6-5.84-9.75-7.67-5.91-2.84-13.93,1.74-12.55,8.8,3.11,15.93,39.92-13.75,45.3-18.67,2.86-2.62-1.39-6.85-4.24-4.25Z" transform="translate(-22.42 -35.54)"/><path class="cls-2" d="M106.7,39.66c.44-1.47,1-1.95.73-3.47.12-.22-.24-.61-.45-.52-1.5-.36-2,.11-3.54.43s-5.84,3.35-5.84,3.35l-6.19,5.91-5.7-2,.83-.79,0-.86a9.45,9.45,0,0,0-.9-.69,2.22,2.22,0,0,0-1,0l-1.57,1.47-2.07-.75.62-.59,0-.86a9.45,9.45,0,0,0-.9-.69,2.22,2.22,0,0,0-1,0l-1.36,1.27L72.2,38.47s-2.7,1-3.13,2.35.21,1.44.21,1.44L80.4,49l3.18,3.54L74.8,61.48l-9-1.19a6.82,6.82,0,0,0-1.94,1.55c-.32.63.43,1.24.43,1.24s7.55,3.84,6.74,4.16-.26,1.62-.14,1.93c0,0,0,.06,0,.06.31.13,1.61.72,2,0s3.56,7.07,3.56,7.07.54.8,1.2.54,1.71-1.81,1.71-1.81L79,66l9.65-8,3.25,3.48,5.78,11.66s.05.64,1.42.33,2.6-2.92,2.6-2.92L100,64.16l1.39-1.25a2.32,2.32,0,0,0,0-1,8.6,8.6,0,0,0-.61-.95l-.86,0-.65.57-.56-2.13,1.59-1.44a2.28,2.28,0,0,0,0-1,9.94,9.94,0,0,0-.62-1l-.85,0-.86.77-1.55-5.86,6.42-5.66S106.21,41.3,106.7,39.66Z" transform="translate(-22.42 -35.54)"/></svg>